<?xml version="1.0" encoding="UTF-8"?>
<svg xmlns="http://www.w3.org/2000/svg" version="1.1" viewBox="0 0 288 560">
  <defs>
    <style>
      .cls-1 {
        stroke-width: 2.87px;
      }

      .cls-1, .cls-2, .cls-3, .cls-4, .cls-5 {
        stroke-linecap: round;
        stroke-miterlimit: 10;
      }

      .cls-1, .cls-2, .cls-3, .cls-5 {
        fill: none;
      }

      .cls-1, .cls-2, .cls-5 {
        stroke: #da9461;
      }

      .cls-2 {
        stroke-width: 3.6px;
      }

      .cls-3 {
        stroke: #fff;
      }

      .cls-3, .cls-4 {
        stroke-width: 1.92px;
      }

      .cls-6, .cls-4 {
        fill: #edbf9e;
      }

      .cls-4 {
        stroke: #edbf9e;
      }

      .cls-5 {
        stroke-width: 3.83px;
      }
    </style>
  </defs>
  <!-- Generator: Adobe Illustrator 28.7.1, SVG Export Plug-In . SVG Version: 1.2.0 Build 142)  -->
  <g>
    <g id="Layer_1">
      <g>
        <circle class="cls-6" cx="56.41" cy="110.74" r="43.02"/>
        <path class="cls-5" d="M75.55,72.72c-19.22,12.07-36.17,27.74-49.7,45.96-2.86,3.85-5.65,8.03-6.23,12.79"/>
        <path class="cls-5" d="M86.58,80.8c-21.63,17.2-40.92,37.34-57.18,59.69"/>
        <path class="cls-5" d="M95.61,94.38c-4.12,3.62-8.23,7.24-12.35,10.86-14.79,13-29.9,26.41-39.12,43.8"/>
        <path class="cls-5" d="M12.55,105.68c-.1-.94,1.36-1.02,2.25-.7,23.44,8.6,45.23,21.69,63.82,38.36"/>
        <path class="cls-5" d="M17.93,91.81c3.67.38,7.18,1.62,10.66,2.85,4.51,1.59,9.02,3.19,13.53,4.78,6.52,2.3,13.07,4.62,19.13,7.93,3.46,1.89,6.73,4.08,10,6.27,8.14,5.46,16.46,11.08,22.17,19.05"/>
        <path class="cls-5" d="M26,79.99c3.26.28,6.46,1.06,9.64,1.84,4.87,1.19,9.74,2.37,14.61,3.56,4.14,1.01,8.29,2.02,12.28,3.52,3.04,1.14,5.98,2.56,8.76,4.23,3.61,2.17,6.95,4.76,10.28,7.34,5.63,4.36,11.25,8.72,16.88,13.09"/>
        <circle class="cls-2" cx="55.67" cy="110.17" r="42.83"/>
        <path class="cls-5" d="M95.09,132.48c12.48.19,24.53-2.1,37.05-.55,9.07,1.13,26.46,2.66,31.86,11.37,13.49,21.77-42.76,16.45-15.4-4.05,18.12-13.58,41.34,7.51,62.08-.01,8.19-2.97,20.96-11.88,19.15-22.19-2.22-12.62-18.29-5.3-9.44.89,10.45,7.31,20.7-10.82,24.67-16.95,9.86-15.24,17.69-2.92,31.8-7.63"/>
        <path class="cls-3" d="M168.64,63.84c.04-3.11.51-6.36,2.32-8.89"/>
        <line class="cls-4" x1="162.22" y1="60.93" x2="190.12" y2="56.81"/>
        <path class="cls-1" d="M191.53,54.76l.55,3.59"/>
        <path class="cls-3" d="M97.98,50c-.75.94-2.01,1.43-3.2,1.26-.87-.12-1.66-.57-2.37-1.09-.45-.32-.88-.69-1.16-1.16-.39-.68-.42-1.5-.43-2.28-.02-1.13-.03-2.32.49-3.33.35-.68.92-1.21,1.51-1.69,1.24-.99,2.65-1.77,4.15-2.3,2.52-.88,5.66-.89,7.52,1.02.38.39.7.86.85,1.39.16.58.1,1.2.04,1.8-.14,1.42-.29,2.85-.74,4.21-.46,1.37-1.21,2.61-1.94,3.85-1.66,2.85-3.21,5.78-4.52,8.81-.81,1.86-1.52,3.76-2.21,5.67-1.57,4.34-2.98,8.73-4.25,13.16"/>
        <path class="cls-3" d="M119.54,65.37c.06.11.14.19.22.28.6.66,1.05,1.45,1.3,2.31"/>
        <path class="cls-3" d="M125.94,81.29c2.85-1.93,5.16-4.63,6.63-7.74.37-.78.69-1.6.78-2.46s-.05-1.77-.55-2.48c-.97-1.37-3.05-1.58-4.53-.8s-2.42,2.33-2.96,3.91c-.19.57-.35,1.16-.37,1.76-.03.7.11,1.4.14,2.1.02.47-.02.95-.02,1.42.02,1.86.76,3.63,1.48,5.35.25.59.5,1.17.79,1.74.87,1.68,2.17,3.16,3.82,4.07s3.69,1.19,5.47.56c.89-.31,1.69-.83,2.44-1.39,2.02-1.53,3.72-3.45,5.4-5.35"/>
        <path class="cls-3" d="M152.56,67.61c.43-1.69.23-3.53-.53-5.09-.29-.58-.75-1.19-1.4-1.21-.27-.01-.54.09-.79.19-1.6.61-3.28,1.3-4.32,2.67-.24.32-.44.67-.62,1.02-1.39,2.67-1.98,5.69-2.21,8.69-.06.75-.09,1.5-.02,2.24.06.63.2,1.26.35,1.88.27,1.12.58,2.26,1.28,3.17.77,1,1.99,1.62,3.25,1.67,1.26.05,2.53-.49,3.37-1.43.32-.35.58-.76.83-1.16,1.35-2.12,2.7-4.24,3.79-6.51.97-2.03,1.72-4.17,2.23-6.37"/>
        <path class="cls-3" d="M178.61,60.94c-.57,1.53-1.13,3.07-1.7,4.6-.32.86-.64,1.73-.99,2.57-2.14,5.07-5.67,9.54-10.11,12.8-1.66,1.22-3.62,2.31-5.66,2.08-.53-.06-1.06-.21-1.48-.55-.69-.57-.9-1.53-1.03-2.42-.51-3.45-.54-6.96-.07-10.42"/>
        <path class="cls-3" d="M216.14,66.87c1.17,1.87,1.7,4.14,1.49,6.34-.06.64-.18,1.28-.31,1.91-.31,1.6-.62,3.21-.93,4.81"/>
        <path class="cls-3" d="M178.36,61.59c.73-1.94.64-4.18-.24-6.06-.68-1.46-2.02-2.78-3.63-2.78-1.06,0-2.05.56-2.78,1.32s-1.26,1.69-1.77,2.62"/>
        <path class="cls-3" d="M224.2,100.64c-.02.75.13,1.74.87,1.87.2.04.41,0,.61-.07,1.19-.37,2.16-1.37,2.48-2.57.1-.36.14-.75.06-1.11-.26-1.17-1.66-1.7-2.85-1.67-2.95.06-5.39,2.2-7.47,4.29-1.49,1.5-2.95,3.03-4.36,4.61-.45.5-.89,1.01-1.17,1.62-.35.76-.42,1.62-.64,2.43-.19.69-.49,1.35-.78,2-2.17,4.84-4.05,9.81-5.62,14.88-.11.34-.16.4.14.59,1.46-4.23,3.03-8.42,4.7-12.56.52-1.3,1.06-2.61,1.35-3.99.35-1.66.34-3.38.23-5.08-.06-.92-.32-2.07-1.22-2.28-.86-.2-1.59.61-2.1,1.33-1.85,2.55-4.12,5.14-7.22,5.72-3.45.65-6.98-1.56-8.74-4.59-1.76-3.04-2.04-6.71-1.78-10.21.12-1.59.37-3.23,1.26-4.55.9-1.32,2.61-2.2,4.11-1.68,1.63.56,2.4,2.55,2.16,4.25-.24,1.71-1.24,3.2-2.22,4.62-1.03,1.5-2.16,3.09-3.86,3.74-.97.37-2.03.4-3.06.52-2.2.27-4.32,1-6.4,1.76-2.92,1.06-6.34,3.01-7.96,5.8-.64,1.1-.93,2.38-1.02,3.65-.14,2,.44,4.33,2.25,5.19.45.22.95.32,1.45.37,3.17.33,6.31-1.46,8.24-4,1.93-2.54,2.81-5.73,3.23-8.9.2-1.48.31-2.99.06-4.46-.29-1.73-1.06-3.33-1.82-4.91-.57-1.18-1.14-2.37-1.86-3.46-2.61-3.94-7.11-6.37-11.76-7.21-2.03-.37-4.12-.46-6.14-.04-1.19.24-2.34.66-3.47,1.08-2.88,1.07-5.82,2.28-8,4.44"/>
        <path class="cls-3" d="M162.03,103.07c.09.05.08-.18-.02-.16s-.14.15-.15.25c-.16,1.33-.33,2.66-.49,3.99-.3,2.4-.59,4.82-.42,7.23.09,1.23.33,2.53,1.15,3.46,1.18,1.35,3.31,1.53,4.97.85,1.66-.67,2.94-2.03,4.06-3.44.54-.68,1.06-1.37,1.54-2.09,1.03-1.51,1.95-3.1,3.14-4.49,1.19-1.39,2.69-2.59,4.47-3.02"/>
        <path class="cls-3" d="M130.58,62.58c-.23.33.06.82.44.94s.8-.03,1.17-.2c.51-.23,1.04-.54,1.22-1.07.18-.52-.07-1.13-.5-1.48s-1-.48-1.56-.49c-1.78-.02-3.35,1.07-4.76,2.15-.93.71-1.85,1.43-2.68,2.26-1.87,1.89-3.18,4.27-4.11,6.76-.45,1.19-.81,2.41-1.13,3.65s-.4,2.58-.87,3.7c-.69,1.64-2.19,3.31-3.77,4.13-1.28.66-2.74.88-4.18.93-.91.03-1.87-.01-2.66-.46-.71-.39-1.21-1.06-1.69-1.72-1.04-1.43-2.05-2.92-2.63-4.59-.97-2.82-.63-5.94.2-8.81.59-2.03,1.43-4.01,1.55-6.12.12-2.11-.68-4.45-2.56-5.4-1.23-.62-2.72-.55-4.02-.11s-2.47,1.22-3.61,1.99c-.36.24-.73.5-.94.88s-.18.93.18,1.18c.28.2.65.15.99.08,2.05-.43,3.84-1.67,5.35-3.12,1.51-1.45,2.78-3.12,4.19-4.67,3.93-4.34,8.84-7.69,14.01-10.44"/>
        <path class="cls-3" d="M168.65,62.58c-.11,5.86,1.21,18.51,8.08,20.86,8.51,2.91,13.08-7.89,13.33-14.47"/>
        <path class="cls-3" d="M202.33,77.55c-1.82,2.73-4.34,5-7.25,6.52-1.09.57-2.41,1.04-3.53.52-.6-.28-1.05-.81-1.43-1.36-.4-.58-.75-1.2-.95-1.88-.24-.83-.25-1.72-.25-2.59,0-.99,0-1.97,0-2.96"/>
        <path class="cls-3" d="M204.78,65.72c-.56,2.39-1.12,4.79-1.67,7.18-.36,1.53-.72,3.08-.77,4.65-.06,1.57.2,3.19,1.01,4.54,1.37,2.29,4.31,3.48,6.9,2.88,1.57-.36,2.96-1.31,4.04-2.5.48-.53.9-1.1,1.27-1.71.4-.65.44-1.33,1.28-1.12,1.63.42,3.22.88,4.92.89,2.34.02,4.65-.77,6.58-2.08,1.93-1.31,3.5-3.12,4.66-5.15.72-1.26,1.29-2.74.87-4.13-.29-.95-1.02-1.72-1.86-2.26-.55-.36-1.18-.64-1.84-.63-1.08.01-2,.78-2.65,1.64-1.61,2.15-2.03,5-1.72,7.67.31,2.67,1.29,5.2,2.26,7.7.24.63.5,1.28.96,1.77.35.38.8.65,1.26.89.93.5,1.89.93,2.89,1.28.63.22,1.27.41,1.94.45,1.27.09,2.53-.35,3.66-.95,2.4-1.27,4.39-3.28,5.63-5.69"/>
        <path class="cls-3" d="M111.92,119.17c.43-2.16.52-4.37.61-6.57.12-2.85.26-5.7.42-8.56.16-2.82.33-5.66,1.04-8.39.26-1.02.6-2.03.94-3.03.69-2.04,1.48-4.23,3.27-5.44,1-.68,2.49-.91,3.34-.05.89.91.57,2.42.09,3.6-.56,1.39-1.25,2.72-2.06,3.98-.43.67-.9,1.32-1.47,1.88-1.35,1.3-3.18,1.96-4.97,2.52-2.69.84-5.61,1.54-8.31.69"/>
        <path class="cls-3" d="M115.25,112.24c1.14-.65,2.48-.83,3.75-1.18,2.2-.61,4.24-1.76,5.89-3.32,1.72-1.63,3.07-3.99,2.54-6.3-.08-.36-.21-.71-.46-.98-.4-.44-1.03-.57-1.61-.64-4.09-.53-8.38.73-11.55,3.37"/>
        <path class="cls-3" d="M133.49,97.12c.78-.39,1.61-.67,2.47-.82.32-.06.71-.08.93.17.1.11.14.26.18.4.65,2.32.32,4.79,0,7.17-.11.81-.22,1.62-.34,2.42-.11.79-.22,1.57-.42,2.34-.75,2.78-2.7,5.06-4.73,7.09-.87.87-1.78,1.72-2.82,2.39-.94.6-1.98,1.05-3.07,1.32-.8.19-1.7.28-2.38-.18-.32-.21-.56-.52-.77-.84-.77-1.13-1.36-2.38-2.19-3.46s-2.01-2.01-3.37-2.11"/>
        <path class="cls-3" d="M137.63,102.81c.98-1.72,2.56-2.99,4.1-4.22.78-.62,1.85-1.27,2.69-.72.8.52.71,1.69.52,2.62-.85,4.28-1.7,8.56-2.55,12.83-.27,1.37-.54,2.75-.62,4.14-.14,2.67.47,5.38,1.74,7.74"/>
        <path class="cls-3" d="M148.4,99.81c-.12,2.07-.75,4.08-1.09,6.13-.51,3.03-.4,6.16.32,9.15.19.78.42,1.57.89,2.22,1.12,1.58,3.4,2.02,5.24,1.4,1.84-.62,3.27-2.09,4.34-3.71,2.28-3.45,3.19-7.6,4.05-11.65"/>
      </g>
    </g>
  </g>
</svg>